<svg width="129" height="20" viewBox="0 0 129 20" fill="none" xmlns="http://www.w3.org/2000/svg">
<path fill-rule="evenodd" clip-rule="evenodd" d="M0.157959 4.14058V8.70571H3.77689V4.14058H0.157959ZM3.80064 4.13879H11.9063V0.703442H3.80064V4.13879ZM128.054 6.39403H123.491L119.033 11.193V0.310059H115.546V19.2963H119.033V15.8871L120.476 14.3662L123.885 19.2963H128.159L122.888 11.8224L128.054 6.39403ZM3.8031 19.2963V12.0585H11.0147V8.72798H3.80068V12.0754H0.157959V19.2963H3.8031ZM21.0675 6.34161C20.8053 6.31536 20.543 6.28916 20.2546 6.28916C19.1532 6.28916 17.3699 6.60382 16.5832 8.30839V6.39403H13.2003V19.2963H16.6881V13.3958C16.6881 10.6161 18.2353 9.75071 20.0186 9.75071C20.3332 9.75071 20.6741 9.77696 21.0675 9.85563V6.34161ZM26.7184 19.6634C23.9649 19.6634 22.2865 17.8015 22.2865 15.7823C22.2865 13.4745 23.9911 12.1895 26.1414 11.8749L29.3146 11.4028C30.0488 11.2979 30.2848 10.9308 30.2848 10.485C30.2848 9.56717 29.5768 8.80665 28.1083 8.80665C26.5873 8.80665 25.7481 9.77696 25.6432 10.9046L22.5488 10.249C22.7585 8.22973 24.6205 6.00069 28.082 6.00069C32.173 6.00069 33.694 8.30839 33.694 10.9046V17.2508C33.694 17.9326 33.7726 18.8504 33.8513 19.2963H30.652C30.5733 18.9554 30.5209 18.2473 30.5209 17.749C29.8652 18.7718 28.6327 19.6634 26.7184 19.6634ZM25.7743 15.5725C25.7743 16.3329 26.325 17.0672 27.4527 17.0672C28.9212 17.0672 30.2848 16.3592 30.2848 14.0777V13.5008L27.374 13.9466C26.4824 14.0777 25.7743 14.576 25.7743 15.5725ZM39.2785 19.2963V11.7437C39.2785 10.3276 40.1702 9.20003 41.6912 9.20003C43.2645 9.20003 43.9725 10.249 43.9725 11.6389V19.2963H47.4341V11.7437C47.4341 10.3539 48.3258 9.20003 49.8205 9.20003C51.4202 9.20003 52.1018 10.249 52.1018 11.6389V19.2963H55.4851V10.9308C55.4851 7.46921 53.2033 6.0269 50.8169 6.0269C49.1125 6.0269 47.7489 6.60382 46.7261 8.17727C46.0705 6.78741 44.6545 6.0269 42.8974 6.0269C41.4814 6.0269 39.8289 6.70875 39.1211 7.96747V6.39403H35.7907V19.2963H39.2785ZM76.3228 14.6808L79.1287 6.39403H82.8L85.58 14.7071L87.966 6.39403H91.428L87.3891 19.2963H83.9016L80.8859 10.485L77.9226 19.2963H74.3823L70.2651 6.39403H73.9364L76.3228 14.6808ZM98.0966 16.5165C96.3922 16.5165 94.8189 15.2578 94.8189 12.8452C94.8189 10.4063 96.3922 9.17378 98.0966 9.17378C99.8015 9.17378 101.375 10.4063 101.375 12.8452C101.375 15.284 99.8015 16.5165 98.0966 16.5165ZM98.0966 6.00069C94.242 6.00069 91.3309 8.85911 91.3309 12.8452C91.3309 16.805 94.242 19.6896 98.0966 19.6896C101.952 19.6896 104.862 16.805 104.862 12.8452C104.862 8.85911 101.952 6.00069 98.0966 6.00069ZM113.251 6.28916C113.539 6.28916 113.802 6.31536 114.064 6.34161V9.85563C113.67 9.77696 113.33 9.75071 113.015 9.75071C111.232 9.75071 109.684 10.6161 109.684 13.3958V19.2963H106.197V6.39403H109.58V8.30839C110.366 6.60382 112.149 6.28916 113.251 6.28916Z" fill="white"/>
<path d="M60.5902 11.3764C60.6689 10.1963 61.6653 8.83264 63.4748 8.83264C65.4681 8.83264 66.3071 10.0914 66.3595 11.3764H60.5902ZM66.7007 14.7331C66.2812 15.8869 65.3894 16.6998 63.7633 16.6998C62.0325 16.6998 60.5902 15.4673 60.5115 13.7628H69.7427C69.7427 13.7103 69.7951 13.1858 69.7951 12.6876C69.7951 8.54417 67.4087 6.00047 63.4225 6.00047C60.1184 6.00047 57.0763 8.6753 57.0763 12.7925C57.0763 17.1456 60.1971 19.6894 63.7373 19.6894C66.9104 19.6894 68.9556 17.8275 69.6113 15.5985L66.7007 14.7331Z" fill="white"/>
</svg>
