<svg width="1200" height="630" viewBox="0 0 1200 630" fill="none" xmlns="http://www.w3.org/2000/svg">
<rect width="1200" height="630" fill="#A1FE9F"/>
<path d="M527.89 99V85.23H536.152V86.688H529.564V91.332H535.216V92.754H529.564V97.542H536.242V99H527.89ZM551.716 89.352H550.024C549.844 87.948 549.106 86.382 547.216 86.382C544.84 86.382 543.868 88.2 543.868 92.16C543.868 96.174 544.858 97.92 547.198 97.92C549.232 97.92 549.898 96.282 550.042 94.716H551.68C551.5 97.308 549.898 99.288 547.18 99.288C543.958 99.288 542.122 97.272 542.122 92.16C542.122 87.372 544.012 85.032 547.234 85.032C549.466 85.032 551.428 86.328 551.716 89.352ZM558.477 99V85.23H560.151V97.542H566.991V99H558.477ZM577.929 86.58V97.65H581.061V99H573.141V97.65H576.273V86.58H573.141V85.23H581.061V86.58H577.929ZM592.125 93.744H589.875V99H588.201V85.23H592.269C594.933 85.23 597.003 86.49 597.003 89.46C597.003 92.376 594.951 93.744 592.125 93.744ZM589.875 92.394H592.125C594.123 92.394 595.275 91.422 595.275 89.46C595.275 87.408 594.123 86.58 592.179 86.58H589.875V92.394ZM611.954 88.92H610.262C610.118 87.57 609.254 86.4 607.346 86.4C605.438 86.4 604.556 87.462 604.556 88.722C604.556 90.126 605.294 90.702 606.626 90.99L608.732 91.458C611.198 91.998 612.188 93.186 612.188 95.238C612.188 97.704 610.55 99.288 607.4 99.288C604.376 99.288 602.63 97.56 602.504 95.13H604.196C604.376 96.606 605.294 97.938 607.436 97.938C609.722 97.938 610.478 96.768 610.478 95.418C610.478 94.194 609.83 93.33 608.228 92.988L606.302 92.574C603.908 92.052 602.9 91.008 602.9 88.83C602.9 86.634 604.664 85.032 607.364 85.032C610.334 85.032 611.756 86.67 611.954 88.92ZM618.572 99V85.23H626.834V86.688H620.246V91.332H625.898V92.754H620.246V97.542H626.924V99H618.572ZM653.497 86.58V97.65H656.629V99H648.709V97.65H651.841V86.58H648.709V85.23H656.629V86.58H653.497ZM672.409 88.92H670.717C670.573 87.57 669.709 86.4 667.801 86.4C665.893 86.4 665.011 87.462 665.011 88.722C665.011 90.126 665.749 90.702 667.081 90.99L669.187 91.458C671.653 91.998 672.643 93.186 672.643 95.238C672.643 97.704 671.005 99.288 667.855 99.288C664.831 99.288 663.085 97.56 662.959 95.13H664.651C664.831 96.606 665.749 97.938 667.891 97.938C670.177 97.938 670.933 96.768 670.933 95.418C670.933 94.194 670.285 93.33 668.683 92.988L666.757 92.574C664.363 92.052 663.355 91.008 663.355 88.83C663.355 86.634 665.119 85.032 667.819 85.032C670.789 85.032 672.211 86.67 672.409 88.92Z" fill="black"/>
<path d="M396.936 259.45C389.93 259.45 383.77 258.06 378.455 255.282C373.14 252.504 369.033 248.638 366.133 243.686C363.234 238.612 361.785 232.814 361.785 226.291V221.036C361.785 220.432 361.966 219.949 362.328 219.587C362.811 219.104 363.355 218.862 363.959 218.862H384.796C385.4 218.862 385.884 219.104 386.246 219.587C386.729 219.949 386.971 220.432 386.971 221.036V225.023C386.971 228.767 387.937 231.787 389.87 234.082C391.803 236.377 394.219 237.525 397.118 237.525C400.017 237.525 402.433 236.438 404.365 234.264C406.298 232.089 407.265 229.25 407.265 225.747C407.265 222.124 406.057 219.043 403.641 216.506C401.225 213.849 396.514 209.983 389.507 204.91C383.468 200.561 378.575 196.696 374.831 193.314C371.086 189.931 367.885 185.764 365.227 180.811C362.57 175.859 361.241 170.121 361.241 163.598C361.241 153.33 364.442 145.116 370.844 138.955C377.247 132.795 385.702 129.714 396.212 129.714C406.842 129.714 415.358 132.915 421.76 139.318C428.283 145.72 431.545 154.115 431.545 164.504V168.852C431.545 169.456 431.303 170 430.82 170.483C430.457 170.845 429.974 171.027 429.37 171.027H408.533C407.929 171.027 407.385 170.845 406.902 170.483C406.54 170 406.359 169.456 406.359 168.852V163.96C406.359 160.215 405.392 157.256 403.459 155.082C401.647 152.786 399.232 151.639 396.212 151.639C393.313 151.639 390.957 152.726 389.145 154.9C387.333 156.954 386.427 159.853 386.427 163.598C386.427 167.222 387.575 170.423 389.87 173.201C392.165 175.979 396.695 179.845 403.459 184.797C410.949 190.354 416.566 194.884 420.311 198.387C424.176 201.769 427.136 205.574 429.189 209.802C431.363 213.909 432.451 218.862 432.451 224.66C432.451 235.29 429.189 243.746 422.666 250.027C416.143 256.309 407.567 259.45 396.936 259.45ZM474.186 259.45C463.073 259.45 454.194 256.188 447.551 249.665C440.907 243.142 437.585 234.445 437.585 223.573V165.591C437.585 154.719 440.907 146.022 447.551 139.499C454.194 132.976 463.073 129.714 474.186 129.714C485.299 129.714 494.178 132.976 500.822 139.499C507.586 146.022 510.969 154.719 510.969 165.591V223.573C510.969 234.445 507.586 243.142 500.822 249.665C494.178 256.188 485.299 259.45 474.186 259.45ZM474.186 237.525C477.568 237.525 480.286 236.377 482.34 234.082C484.393 231.666 485.42 228.526 485.42 224.66V164.504C485.42 160.638 484.393 157.558 482.34 155.263C480.286 152.847 477.568 151.639 474.186 151.639C470.804 151.639 468.086 152.847 466.032 155.263C464.1 157.558 463.133 160.638 463.133 164.504V224.66C463.133 228.526 464.1 231.666 466.032 234.082C468.086 236.377 470.804 237.525 474.186 237.525ZM521.778 258C521.174 258 520.63 257.819 520.147 257.456C519.785 256.973 519.604 256.43 519.604 255.826V133.338C519.604 132.734 519.785 132.251 520.147 131.889C520.63 131.406 521.174 131.164 521.778 131.164H542.978C543.582 131.164 544.065 131.406 544.427 131.889C544.91 132.251 545.152 132.734 545.152 133.338V235.17C545.152 235.773 545.454 236.075 546.058 236.075H584.109C584.713 236.075 585.196 236.317 585.558 236.8C586.042 237.163 586.283 237.646 586.283 238.25V255.826C586.283 256.43 586.042 256.973 585.558 257.456C585.196 257.819 584.713 258 584.109 258H521.778ZM647.596 258C646.147 258 645.362 257.336 645.241 256.007L642.342 238.612C642.342 238.008 641.979 237.706 641.254 237.706H618.243C617.518 237.706 617.156 238.008 617.156 238.612L614.256 256.007C614.136 257.336 613.35 258 611.901 258H590.701C589.131 258 588.527 257.215 588.889 255.644L615.525 133.157C615.766 131.828 616.552 131.164 617.88 131.164H642.342C643.67 131.164 644.456 131.828 644.697 133.157L671.152 255.644L671.333 256.369C671.333 257.456 670.668 258 669.34 258H647.596ZM620.779 217.05C620.779 217.654 621.021 217.956 621.504 217.956H637.812C638.416 217.956 638.657 217.654 638.537 217.05L630.02 167.584C629.9 167.222 629.718 167.04 629.477 167.04C629.235 167.04 629.054 167.222 628.933 167.584L620.779 217.05ZM728.123 133.338C728.123 132.734 728.304 132.251 728.667 131.889C729.15 131.406 729.693 131.164 730.297 131.164H751.316C751.92 131.164 752.403 131.406 752.765 131.889C753.249 132.251 753.49 132.734 753.49 133.338V255.826C753.49 256.43 753.249 256.973 752.765 257.456C752.403 257.819 751.92 258 751.316 258H727.398C726.19 258 725.405 257.396 725.043 256.188L702.575 186.066C702.454 185.703 702.212 185.583 701.85 185.703C701.608 185.703 701.487 185.885 701.487 186.247L701.669 255.826C701.669 256.43 701.427 256.973 700.944 257.456C700.581 257.819 700.098 258 699.494 258H678.476C677.872 258 677.328 257.819 676.845 257.456C676.483 256.973 676.301 256.43 676.301 255.826V133.338C676.301 132.734 676.483 132.251 676.845 131.889C677.328 131.406 677.872 131.164 678.476 131.164H702.212C703.42 131.164 704.205 131.768 704.568 132.976L727.217 203.098C727.338 203.46 727.519 203.642 727.761 203.642C728.123 203.521 728.304 203.279 728.304 202.917L728.123 133.338ZM817.211 258C815.762 258 814.976 257.336 814.856 256.007L811.957 238.612C811.957 238.008 811.594 237.706 810.869 237.706H787.858C787.133 237.706 786.771 238.008 786.771 238.612L783.871 256.007C783.751 257.336 782.965 258 781.516 258H760.316C758.746 258 758.142 257.215 758.504 255.644L785.14 133.157C785.381 131.828 786.167 131.164 787.495 131.164H811.957C813.285 131.164 814.07 131.828 814.312 133.157L840.766 255.644L840.948 256.369C840.948 257.456 840.283 258 838.955 258H817.211ZM790.394 217.05C790.394 217.654 790.636 217.956 791.119 217.956H807.427C808.031 217.956 808.272 217.654 808.151 217.05L799.635 167.584C799.515 167.222 799.333 167.04 799.092 167.04C798.85 167.04 798.669 167.222 798.548 167.584L790.394 217.05Z" fill="black"/>
<path d="M568.63 357.68C551.35 357.68 539.11 341.12 539.11 315.2C539.11 289.28 551.35 272.72 568.63 272.72C585.91 272.72 598.15 289.28 598.15 315.2C598.15 341.12 585.91 357.68 568.63 357.68ZM568.63 353.6C582.31 353.6 589.99 338.96 589.99 315.2C589.99 291.44 582.31 276.8 568.63 276.8C554.95 276.8 547.27 291.44 547.27 315.2C547.27 338.96 554.95 353.6 568.63 353.6ZM640.541 277.52V274.4H661.781V277.52C657.101 277.76 655.781 280.52 655.781 289.04V356.96H650.021L614.981 293.72V340.76C614.981 350.36 616.061 352.64 625.061 352.88V356H602.381V352.88C609.461 352.64 610.421 350.6 610.421 340.76V285.44C607.301 280.04 605.261 278.12 602.381 277.52V274.4H612.341L651.221 345.2V289.04C651.221 279.8 649.301 277.76 640.541 277.52Z" fill="black"/>
<path d="M352.913 391.914C352.913 392.518 352.672 393.062 352.189 393.545C351.826 393.907 351.343 394.088 350.739 394.088H312.869C312.265 394.088 311.963 394.39 311.963 394.994V423.623C311.963 424.227 312.265 424.529 312.869 424.529H334.613C335.217 424.529 335.7 424.771 336.062 425.254C336.545 425.616 336.787 426.099 336.787 426.703V444.279C336.787 444.883 336.545 445.427 336.062 445.91C335.7 446.272 335.217 446.454 334.613 446.454H312.869C312.265 446.454 311.963 446.756 311.963 447.36V476.17C311.963 476.773 312.265 477.075 312.869 477.075H350.739C351.343 477.075 351.826 477.317 352.189 477.8C352.672 478.163 352.913 478.646 352.913 479.25V496.826C352.913 497.43 352.672 497.973 352.189 498.456C351.826 498.819 351.343 499 350.739 499H288.589C287.985 499 287.442 498.819 286.959 498.456C286.596 497.973 286.415 497.43 286.415 496.826V374.338C286.415 373.734 286.596 373.251 286.959 372.889C287.442 372.406 287.985 372.164 288.589 372.164H350.739C351.343 372.164 351.826 372.406 352.189 372.889C352.672 373.251 352.913 373.734 352.913 374.338V391.914ZM430.732 372.164C431.336 372.164 431.819 372.406 432.182 372.889C432.665 373.251 432.906 373.734 432.906 374.338V391.914C432.906 392.518 432.665 393.062 432.182 393.545C431.819 393.907 431.336 394.088 430.732 394.088H408.083C407.479 394.088 407.177 394.39 407.177 394.994V496.826C407.177 497.43 406.935 497.973 406.452 498.456C406.09 498.819 405.606 499 405.002 499H383.803C383.199 499 382.655 498.819 382.172 498.456C381.81 497.973 381.628 497.43 381.628 496.826V394.994C381.628 394.39 381.326 394.088 380.722 394.088H358.979C358.375 394.088 357.831 393.907 357.348 393.545C356.986 393.062 356.805 392.518 356.805 391.914V374.338C356.805 373.734 356.986 373.251 357.348 372.889C357.831 372.406 358.375 372.164 358.979 372.164H430.732ZM485.23 374.338C485.23 373.734 485.412 373.251 485.774 372.889C486.257 372.406 486.801 372.164 487.405 372.164H508.605C509.209 372.164 509.692 372.406 510.054 372.889C510.537 373.251 510.779 373.734 510.779 374.338V496.826C510.779 497.43 510.537 497.973 510.054 498.456C509.692 498.819 509.209 499 508.605 499H487.405C486.801 499 486.257 498.819 485.774 498.456C485.412 497.973 485.23 497.43 485.23 496.826V447.36C485.23 446.756 484.928 446.454 484.325 446.454H466.205C465.601 446.454 465.299 446.756 465.299 447.36V496.826C465.299 497.43 465.058 497.973 464.574 498.456C464.212 498.819 463.729 499 463.125 499H441.925C441.321 499 440.777 498.819 440.294 498.456C439.932 497.973 439.751 497.43 439.751 496.826V374.338C439.751 373.734 439.932 373.251 440.294 372.889C440.777 372.406 441.321 372.164 441.925 372.164H463.125C463.729 372.164 464.212 372.406 464.574 372.889C465.058 373.251 465.299 373.734 465.299 374.338V423.623C465.299 424.227 465.601 424.529 466.205 424.529H484.325C484.928 424.529 485.23 424.227 485.23 423.623V374.338ZM587.341 391.914C587.341 392.518 587.099 393.062 586.616 393.545C586.253 393.907 585.77 394.088 585.166 394.088H547.297C546.693 394.088 546.391 394.39 546.391 394.994V423.623C546.391 424.227 546.693 424.529 547.297 424.529H569.04C569.644 424.529 570.127 424.771 570.49 425.254C570.973 425.616 571.214 426.099 571.214 426.703V444.279C571.214 444.883 570.973 445.427 570.49 445.91C570.127 446.272 569.644 446.454 569.04 446.454H547.297C546.693 446.454 546.391 446.756 546.391 447.36V476.17C546.391 476.773 546.693 477.075 547.297 477.075H585.166C585.77 477.075 586.253 477.317 586.616 477.8C587.099 478.163 587.341 478.646 587.341 479.25V496.826C587.341 497.43 587.099 497.973 586.616 498.456C586.253 498.819 585.77 499 585.166 499H523.017C522.413 499 521.869 498.819 521.386 498.456C521.023 497.973 520.842 497.43 520.842 496.826V374.338C520.842 373.734 521.023 373.251 521.386 372.889C521.869 372.406 522.413 372.164 523.017 372.164H585.166C585.77 372.164 586.253 372.406 586.616 372.889C587.099 373.251 587.341 373.734 587.341 374.338V391.914ZM644.866 499C643.537 499 642.691 498.396 642.329 497.188L628.377 447.178C628.135 446.695 627.833 446.454 627.471 446.454H621.31C620.706 446.454 620.404 446.756 620.404 447.36V496.826C620.404 497.43 620.163 497.973 619.68 498.456C619.317 498.819 618.834 499 618.23 499H597.03C596.426 499 595.883 498.819 595.399 498.456C595.037 497.973 594.856 497.43 594.856 496.826V374.338C594.856 373.734 595.037 373.251 595.399 372.889C595.883 372.406 596.426 372.164 597.03 372.164H633.632C640.275 372.164 646.194 373.795 651.389 377.056C656.583 380.197 660.569 384.666 663.347 390.465C666.247 396.263 667.696 402.907 667.696 410.396C667.696 417.523 666.307 423.804 663.529 429.24C660.871 434.676 657.126 438.904 652.295 441.924C652.053 442.045 651.872 442.226 651.751 442.467C651.63 442.588 651.63 442.769 651.751 443.011L668.421 496.463L668.602 497.188C668.602 498.396 667.938 499 666.609 499H644.866ZM621.31 394.088C620.706 394.088 620.404 394.39 620.404 394.994V425.979C620.404 426.583 620.706 426.885 621.31 426.885H629.464C633.209 426.885 636.229 425.435 638.524 422.536C640.94 419.516 642.148 415.53 642.148 410.577C642.148 405.504 640.94 401.517 638.524 398.618C636.229 395.598 633.209 394.088 629.464 394.088H621.31ZM741.207 391.914C741.207 392.518 740.966 393.062 740.482 393.545C740.12 393.907 739.637 394.088 739.033 394.088H701.163C700.559 394.088 700.257 394.39 700.257 394.994V423.623C700.257 424.227 700.559 424.529 701.163 424.529H722.907C723.511 424.529 723.994 424.771 724.356 425.254C724.839 425.616 725.081 426.099 725.081 426.703V444.279C725.081 444.883 724.839 445.427 724.356 445.91C723.994 446.272 723.511 446.454 722.907 446.454H701.163C700.559 446.454 700.257 446.756 700.257 447.36V476.17C700.257 476.773 700.559 477.075 701.163 477.075H739.033C739.637 477.075 740.12 477.317 740.482 477.8C740.966 478.163 741.207 478.646 741.207 479.25V496.826C741.207 497.43 740.966 497.973 740.482 498.456C740.12 498.819 739.637 499 739.033 499H676.883C676.279 499 675.736 498.819 675.252 498.456C674.89 497.973 674.709 497.43 674.709 496.826V374.338C674.709 373.734 674.89 373.251 675.252 372.889C675.736 372.406 676.279 372.164 676.883 372.164H739.033C739.637 372.164 740.12 372.406 740.482 372.889C740.966 373.251 741.207 373.734 741.207 374.338V391.914ZM784.237 500.45C773.365 500.45 764.607 497.067 757.963 490.303C751.44 483.417 748.179 474.297 748.179 462.942V374.338C748.179 373.734 748.36 373.251 748.723 372.889C749.206 372.406 749.749 372.164 750.353 372.164H771.553C772.157 372.164 772.64 372.406 773.003 372.889C773.486 373.251 773.727 373.734 773.727 374.338V465.479C773.727 469.345 774.694 472.485 776.626 474.901C778.559 477.317 781.096 478.525 784.237 478.525C787.377 478.525 789.854 477.317 791.666 474.901C793.598 472.485 794.565 469.345 794.565 465.479V374.338C794.565 373.734 794.746 373.251 795.108 372.889C795.591 372.406 796.135 372.164 796.739 372.164H817.939C818.543 372.164 819.026 372.406 819.388 372.889C819.872 373.251 820.113 373.734 820.113 374.338V462.942C820.113 474.297 816.791 483.417 810.147 490.303C803.624 497.067 794.987 500.45 784.237 500.45ZM887.973 373.613C888.456 372.647 889.362 372.164 890.691 372.164H911.71C912.314 372.164 912.797 372.406 913.159 372.889C913.642 373.251 913.884 373.734 913.884 374.338V496.826C913.884 497.43 913.642 497.973 913.159 498.456C912.797 498.819 912.314 499 911.71 499H890.51C889.906 499 889.362 498.819 888.879 498.456C888.517 497.973 888.336 497.43 888.336 496.826V415.469C888.336 414.986 888.215 414.745 887.973 414.745C887.732 414.745 887.49 414.926 887.248 415.288L873.115 440.293C872.511 441.259 872.028 441.743 871.666 441.743C871.303 441.743 870.82 441.259 870.216 440.293L856.083 415.288C855.841 414.926 855.6 414.745 855.358 414.745C855.117 414.745 854.996 414.986 854.996 415.469V496.826C854.996 497.43 854.754 497.973 854.271 498.456C853.909 498.819 853.426 499 852.822 499H831.622C831.018 499 830.474 498.819 829.991 498.456C829.629 497.973 829.447 497.43 829.447 496.826V374.338C829.447 373.734 829.629 373.251 829.991 372.889C830.474 372.406 831.018 372.164 831.622 372.164H852.459C853.667 372.164 854.573 372.647 855.177 373.613L871.303 402.423C871.666 402.907 872.028 402.907 872.391 402.423L887.973 373.613Z" fill="black"/>
<path d="M428.89 545V531.23H437.152V532.688H430.564V537.332H436.216V538.754H430.564V543.542H437.242V545H428.89ZM453.112 531.23V532.652H448.702V545H447.028V532.652H442.618V531.23H453.112ZM460.251 538.772V545H458.577V531.23H460.251V537.35H465.723V531.23H467.397V545H465.723V538.772H460.251ZM474.231 545V531.23H482.493V532.688H475.905V537.332H481.557V538.754H475.905V543.542H482.583V545H474.231ZM496.149 545L493.305 539.168H490.767V545H489.093V531.23H493.503C494.511 531.23 495.411 531.428 496.167 531.842C497.265 532.436 497.895 533.498 497.895 535.082C497.895 537.548 496.257 538.574 494.997 538.898V538.934L498.039 545H496.149ZM490.767 537.782H493.377C494.997 537.782 496.149 536.99 496.149 535.1C496.149 533.408 495.033 532.598 493.449 532.598H490.767V537.782ZM504.458 545V531.23H512.72V532.688H506.132V537.332H511.784V538.754H506.132V543.542H512.81V545H504.458ZM518.924 540.41V531.23H520.598V540.392C520.598 542.498 521.39 543.902 523.46 543.902C525.548 543.902 526.304 542.498 526.304 540.392V531.23H527.942V540.41C527.942 543.866 526.124 545.27 523.442 545.27C520.724 545.27 518.924 543.902 518.924 540.41ZM534.146 545V531.23H536.504L538.088 537.782C538.412 539.132 538.502 540.176 538.502 540.176H538.646C538.646 540.176 538.718 539.132 539.042 537.818L540.626 531.23H542.966V545.018L541.382 545V533.228H541.238C541.238 533.228 541.094 534.362 540.752 535.802L539.33 541.706H537.692L536.288 535.82C535.946 534.38 535.82 533.228 535.82 533.228H535.676V545H534.146ZM555.541 531.23L553.399 535.928H551.977L552.949 531.23H555.541ZM573.409 534.92H571.717C571.573 533.57 570.709 532.4 568.801 532.4C566.893 532.4 566.011 533.462 566.011 534.722C566.011 536.126 566.749 536.702 568.081 536.99L570.187 537.458C572.653 537.998 573.643 539.186 573.643 541.238C573.643 543.704 572.005 545.288 568.855 545.288C565.831 545.288 564.085 543.56 563.959 541.13H565.651C565.831 542.606 566.749 543.938 568.891 543.938C571.177 543.938 571.933 542.768 571.933 541.418C571.933 540.194 571.285 539.33 569.683 538.988L567.757 538.574C565.363 538.052 564.355 537.008 564.355 534.83C564.355 532.634 566.119 531.032 568.819 531.032C571.789 531.032 573.211 532.67 573.409 534.92ZM597.174 539.132V545H595.5V531.23H603.906V532.688H597.174V537.71H603.168V539.132H597.174ZM614.952 532.58V543.65H618.084V545H610.164V543.65H613.296V532.58H610.164V531.23H618.084V532.58H614.952ZM632.172 545L629.328 539.168H626.79V545H625.116V531.23H629.526C630.534 531.23 631.434 531.428 632.19 531.842C633.288 532.436 633.918 533.498 633.918 535.082C633.918 537.548 632.28 538.574 631.02 538.898V538.934L634.062 545H632.172ZM626.79 537.782H629.4C631.02 537.782 632.172 536.99 632.172 535.1C632.172 533.408 631.056 532.598 629.472 532.598H626.79V537.782ZM648.977 534.92H647.285C647.141 533.57 646.277 532.4 644.369 532.4C642.461 532.4 641.579 533.462 641.579 534.722C641.579 536.126 642.317 536.702 643.649 536.99L645.755 537.458C648.221 537.998 649.211 539.186 649.211 541.238C649.211 543.704 647.573 545.288 644.423 545.288C641.399 545.288 639.653 543.56 639.527 541.13H641.219C641.399 542.606 642.317 543.938 644.459 543.938C646.745 543.938 647.501 542.768 647.501 541.418C647.501 540.194 646.853 539.33 645.251 538.988L643.325 538.574C640.931 538.052 639.923 537.008 639.923 534.83C639.923 532.634 641.687 531.032 644.387 531.032C647.357 531.032 648.779 532.67 648.977 534.92ZM664.703 531.23V532.652H660.293V545H658.619V532.652H654.209V531.23H664.703ZM694.318 534.92H692.626C692.482 533.57 691.618 532.4 689.71 532.4C687.802 532.4 686.92 533.462 686.92 534.722C686.92 536.126 687.658 536.702 688.99 536.99L691.096 537.458C693.562 537.998 694.552 539.186 694.552 541.238C694.552 543.704 692.914 545.288 689.764 545.288C686.74 545.288 684.994 543.56 684.868 541.13H686.56C686.74 542.606 687.658 543.938 689.8 543.938C692.086 543.938 692.842 542.768 692.842 541.418C692.842 540.194 692.194 539.33 690.592 538.988L688.666 538.574C686.272 538.052 685.264 537.008 685.264 534.83C685.264 532.634 687.028 531.032 689.728 531.032C692.698 531.032 694.12 532.67 694.318 534.92ZM709.864 531.23L705.976 545H703.672L699.748 531.23H701.53L704.248 541.22C704.482 542.066 704.788 543.452 704.788 543.452H704.932C704.932 543.452 705.274 542.048 705.49 541.22L708.19 531.23H709.864ZM715.51 545V531.23H717.868L719.452 537.782C719.776 539.132 719.866 540.176 719.866 540.176H720.01C720.01 540.176 720.082 539.132 720.406 537.818L721.99 531.23H724.33V545.018L722.746 545V533.228H722.602C722.602 533.228 722.458 534.362 722.116 535.802L720.694 541.706H719.056L717.652 535.82C717.31 534.38 717.184 533.228 717.184 533.228H717.04V545H715.51ZM746.637 545V531.23H748.311V543.542H755.151V545H746.637ZM762.759 536.108H761.193C761.085 533.318 762.867 531.464 765.495 531.464C768.339 531.464 769.599 533.3 769.599 535.1C769.599 536.81 768.915 538.052 766.719 540.158L764.649 542.138C763.515 543.218 763.173 543.524 763.173 543.524V543.56H769.779V545H761.013V543.74L765.585 539.24C767.133 537.71 767.961 536.702 767.961 535.19C767.961 533.822 766.971 532.814 765.513 532.814C763.731 532.814 762.723 534.002 762.759 536.108Z" fill="black"/>
<g clip-path="url(#clip0_2152_454)">
<path d="M599.147 34.9137L598.491 37.26H610.576L609.603 40.7407H597.518L596.862 43.0869C596.686 43.7137 597.037 44.2217 597.644 44.2217H611.472L611.468 44.2363C612.469 42.6189 613.217 40.8519 613.635 39.0005C614.051 37.1549 614.1 35.3928 613.832 33.7793H600.565C599.957 33.7793 599.323 34.2873 599.147 34.914L599.147 34.9137Z" fill="black"/>
<path fill-rule="evenodd" clip-rule="evenodd" d="M593.113 47.7016C591.443 47.6883 590.482 46.2837 590.966 44.5533L594.072 33.4464C594.559 31.7074 596.32 30.2979 598.005 30.2979H600.439L600.438 30.2976H612.643C612.644 30.2977 612.644 30.2978 612.644 30.2979H612.645C610.875 27.07 607.485 25 603.157 25C595.626 25 588.107 31.2676 586.364 38.9998C584.62 46.7324 589.312 52.9997 596.843 52.9997C601.171 52.9997 605.495 50.9297 608.721 47.7017H593.139C593.13 47.7017 593.122 47.7017 593.113 47.7016Z" fill="black"/>
</g>
<g clip-path="url(#clip1_2152_454)">
<path d="M599.147 586.914L598.491 589.26H610.576L609.603 592.741H597.518L596.862 595.087C596.686 595.714 597.037 596.222 597.644 596.222H611.472L611.468 596.236C612.469 594.619 613.217 592.852 613.635 591C614.051 589.155 614.1 587.393 613.832 585.779H600.565C599.957 585.779 599.323 586.287 599.147 586.914L599.147 586.914Z" fill="black"/>
<path fill-rule="evenodd" clip-rule="evenodd" d="M593.113 599.702C591.443 599.688 590.482 598.284 590.966 596.553L594.072 585.446C594.559 583.707 596.32 582.298 598.005 582.298H600.439L600.438 582.298H612.643C612.644 582.298 612.644 582.298 612.644 582.298H612.645C610.875 579.07 607.485 577 603.157 577C595.626 577 588.107 583.268 586.364 591C584.62 598.732 589.312 605 596.843 605C601.171 605 605.495 602.93 608.721 599.702H593.139C593.13 599.702 593.122 599.702 593.113 599.702Z" fill="black"/>
</g>
<defs>
<clipPath id="clip0_2152_454">
<rect width="28" height="28" fill="white" transform="translate(586 25)"/>
</clipPath>
<clipPath id="clip1_2152_454">
<rect width="28" height="28" fill="white" transform="translate(586 577)"/>
</clipPath>
</defs>
</svg>
