<svg width="69" height="20" viewBox="0 0 69 20" fill="none" xmlns="http://www.w3.org/2000/svg">
<path d="M23.6558 14.8242C24.1085 16.3203 25.0949 17.2276 27.0401 17.2276C28.6393 17.2276 29.784 16.5062 29.784 15.2511C29.784 13.9961 28.4516 13.5949 26.4788 13.1146L25.4924 12.8477C23.1737 12.2864 21.442 11.2448 21.442 8.81567C21.442 6.38649 23.6797 4.70264 26.799 4.70264C29.9183 4.70264 31.915 6.03868 32.2352 8.78806H29.6772C29.2779 7.53299 28.3449 6.83921 26.7199 6.83921C25.014 6.83921 24.1877 7.53299 24.1877 8.57459C24.1877 9.72293 25.014 10.0431 26.7199 10.5511L28.2124 10.978C31.0096 11.7785 32.4763 12.6343 32.4763 14.9843C32.4763 17.6822 30.1575 19.4175 26.9591 19.4175C23.5472 19.4175 21.5487 17.949 20.9893 14.8242H23.654H23.6558Z" fill="white"/>
<path d="M48.064 12.1263C48.064 16.3995 45.425 19.4433 40.9495 19.4433C36.4739 19.4433 33.9141 16.3995 33.9141 12.1263C33.9141 7.8532 36.6322 4.70264 41.0028 4.70264C45.3735 4.70264 48.064 7.77407 48.064 12.1263ZM36.7647 12.1006C36.7647 15.2254 38.2571 17.2018 40.9219 17.2018C43.5866 17.2018 45.1048 15.2254 45.1048 12.1006C45.1048 8.97577 43.559 6.94594 40.9219 6.94594C38.2847 6.94594 36.7647 9.10827 36.7647 12.1006Z" fill="white"/>
<path d="M50.5166 0.00146484H53.2089V19.0962H50.5166V0.00146484Z" fill="white"/>
<path d="M60.2188 19.0983L54.9961 5.07715H58.0602L60.2446 11.4593L61.7904 16.1869H61.8438C62.4842 14.2381 62.9369 13.2222 63.5755 11.1666L65.6274 5.07715H68.5314L63.1485 19.0983H60.217H60.2188Z" fill="white"/>
<path d="M6.82585 0.381915L0.375652 6.84683C-0.130426 7.35475 -0.130426 8.17736 0.375652 8.68527C0.88173 9.19319 1.7025 9.19319 2.21041 8.68527L8.66061 2.22036C9.16669 1.71244 9.16669 0.889833 8.66061 0.381915C8.15453 -0.126003 7.33376 -0.126003 6.82585 0.381915Z" fill="white"/>
<path d="M12.1969 5.76668L5.74675 12.2316C5.24067 12.7395 5.24067 13.5621 5.74675 14.07C6.25282 14.5779 7.07359 14.5779 7.58151 14.07L14.0317 7.60512C14.5378 7.09721 14.5378 6.2746 14.0317 5.76668C13.5256 5.25876 12.7049 5.25876 12.1969 5.76668Z" fill="white"/>
<path d="M7.57486 5.01375L1.12468 11.4787C0.618598 11.9866 0.618598 12.8092 1.12468 13.3171C1.63075 13.825 2.45152 13.825 2.95944 13.3171L9.40963 6.85219C9.9157 6.34428 9.9157 5.52167 9.40963 5.01375C8.90355 4.50583 8.08278 4.50583 7.57486 5.01375Z" fill="white"/>
<path d="M12.946 10.3985L6.49577 16.8634C5.98969 17.3713 5.98969 18.194 6.49577 18.7019C7.00185 19.2098 7.82261 19.2098 8.33053 18.7019L14.7807 12.237C15.2868 11.729 15.2868 10.9064 14.7807 10.3985C14.2746 9.8906 13.4539 9.8906 12.946 10.3985Z" fill="white"/>
</svg>
